<?xml version="1.0" standalone="no"?>
<!DOCTYPE svg PUBLIC "-//W3C//DTD SVG 20010904//EN"
 "http://www.w3.org/TR/2001/REC-SVG-20010904/DTD/svg10.dtd">
<svg version="1.0" xmlns="http://www.w3.org/2000/svg"
 width="1080.000000pt" height="1080.000000pt" viewBox="0 0 1080.000000 1080.000000"
 preserveAspectRatio="xMidYMid meet">

<g transform="translate(0.000000,1080.000000) scale(0.100000,-0.100000)"
fill="#000000" stroke="none">
<path d="M6450 10732 c0 -64 -1 -69 -29 -85 -37 -22 -37 -54 1 -73 29 -15 57
-7 83 23 18 21 64 2 101 -42 42 -51 55 -58 92 -44 32 13 176 12 180 -2 2 -5
35 -9 74 -9 61 0 69 -2 58 -15 -10 -12 -9 -16 4 -21 32 -12 139 -10 143 3 3 9
21 11 65 6 63 -6 146 -43 233 -103 24 -16 47 -30 51 -30 4 0 12 -8 19 -17 8
-11 67 -31 161 -54 208 -53 221 -58 305 -131 17 -15 50 -36 73 -47 22 -10 54
-33 70 -50 17 -17 38 -31 47 -31 10 0 21 -4 24 -10 3 -5 19 -10 34 -10 32 0
101 -26 101 -38 0 -4 12 -15 28 -24 15 -9 38 -27 52 -40 14 -13 41 -33 60 -45
19 -12 44 -30 55 -40 131 -118 195 -163 229 -163 8 0 34 -27 58 -60 l43 -61
43 6 c47 7 66 20 156 108 59 58 76 68 76 43 0 -13 -92 -108 -135 -140 -16 -12
-18 -19 -10 -41 11 -31 17 -35 88 -62 27 -10 60 -28 73 -40 14 -13 30 -23 37
-23 9 0 9 -2 0 -8 -15 -10 40 -65 137 -137 36 -27 67 -52 70 -55 3 -3 37 -30
75 -60 39 -30 72 -58 73 -62 2 -5 9 -8 15 -8 7 0 23 -12 36 -25 35 -38 66 -41
114 -15 23 13 44 26 47 29 13 15 82 62 126 87 27 14 60 37 74 49 14 13 41 30
60 38 19 8 48 26 63 41 15 14 36 26 46 26 10 0 31 10 47 22 15 13 24 16 19 8
-20 -32 -52 -63 -80 -77 -16 -9 -32 -19 -35 -22 -7 -8 -57 -37 -97 -56 -18 -8
-33 -19 -33 -24 0 -6 -9 -13 -21 -16 -28 -9 -169 -116 -214 -162 -32 -33 -34
-38 -20 -52 8 -9 24 -27 35 -41 16 -21 21 -22 29 -11 12 19 89 42 97 30 3 -5
-6 -13 -19 -18 -13 -5 -27 -17 -30 -25 -4 -9 -13 -16 -21 -16 -8 0 -16 -8 -18
-17 -4 -18 11 -64 23 -73 4 -3 8 -46 10 -97 3 -73 8 -97 25 -120 11 -15 27
-45 34 -65 8 -21 18 -38 22 -38 5 0 8 -7 6 -16 -2 -9 8 -23 22 -32 24 -16 25
-16 10 3 -14 19 -14 19 3 6 9 -7 17 -17 17 -22 0 -12 37 -48 43 -42 3 2 10 -5
17 -16 6 -12 17 -21 26 -21 8 0 17 -7 21 -16 3 -8 12 -13 20 -10 8 3 11 1 8
-4 -3 -6 1 -10 9 -10 10 0 16 -9 16 -21 0 -15 5 -19 16 -15 8 3 12 2 9 -4 -3
-5 3 -13 13 -19 10 -5 24 -21 31 -34 7 -14 22 -28 33 -30 12 -3 17 -10 13 -17
-5 -8 8 -9 44 -4 42 5 51 4 51 -9 0 -16 64 -77 80 -77 13 0 13 -67 1 -74 -5
-4 -3 -27 6 -53 8 -27 14 -65 14 -87 0 -27 7 -44 23 -60 12 -11 31 -39 42 -61
14 -27 29 -41 50 -47 19 -5 56 -36 99 -83 47 -52 75 -75 88 -73 12 2 21 -3 22
-13 2 -9 17 -40 34 -70 l31 -54 0 1743 0 1742 -2175 0 -2175 0 0 -68z m7 -98
c-3 -3 -12 -4 -19 -1 -8 3 -5 6 6 6 11 1 17 -2 13 -5z m3340 -1896 c-3 -8 -6
-5 -6 6 -1 11 2 17 5 13 3 -3 4 -12 1 -19z m703 -1068 c0 -5 -4 -10 -10 -10
-5 0 -10 5 -10 10 0 6 5 10 10 10 6 0 10 -4 10 -10z m27 -22 c-3 -8 -6 -5 -6
6 -1 11 2 17 5 13 3 -3 4 -12 1 -19z"/>
<path d="M0 7660 c0 -645 3 -811 12 -808 7 3 17 14 23 26 5 12 14 22 20 22 6
0 60 25 120 55 61 30 115 55 120 55 14 1 55 36 55 48 0 10 26 25 46 27 17 1
64 26 99 52 64 49 75 58 75 69 0 6 11 17 25 24 14 7 25 19 25 27 0 7 7 13 15
13 8 0 15 7 15 15 0 8 4 15 8 15 5 0 30 44 58 98 27 53 53 102 59 109 5 7 15
19 22 27 6 7 9 17 6 20 -4 3 6 16 20 28 26 23 27 25 29 155 0 12 6 24 14 27 8
3 14 14 14 25 0 31 44 75 76 77 16 1 35 2 42 3 6 0 12 11 11 24 0 21 -1 21 -9
2 -8 -18 -9 -18 -10 5 -1 14 -1 56 0 94 1 53 -1 67 -12 64 -7 -3 -14 -16 -16
-30 -3 -22 -10 -27 -50 -35 l-47 -8 -3 -49 c-2 -27 -9 -55 -17 -62 -7 -8 -16
-19 -19 -26 -5 -10 -7 -10 -12 0 -3 6 -10 10 -15 6 -5 -3 -9 11 -9 30 0 34 -2
36 -35 36 -33 0 -35 2 -35 35 0 34 -1 35 -41 35 l-41 0 4 125 c2 69 0 125 -5
125 -5 0 -6 18 -2 40 6 33 4 40 -10 40 -9 0 -13 5 -10 10 4 6 -30 10 -94 10
-80 0 -101 -3 -101 -14 0 -11 -10 -13 -42 -9 -24 3 -44 6 -44 7 -1 0 -4 18 -8
39 -7 35 -6 37 19 37 15 0 33 7 41 15 14 13 7 15 -65 15 -44 0 -82 4 -85 9 -3
4 -34 11 -68 15 -35 3 -87 9 -115 12 l-53 7 0 -813z m497 338 c-1 -46 -3 -9
-3 82 0 91 2 128 3 83 2 -46 2 -120 0 -165z m483 -88 c0 -5 -4 -10 -10 -10 -5
0 -10 5 -10 10 0 6 5 10 10 10 6 0 10 -4 10 -10z"/>
<path d="M378 8453 c7 -3 16 -2 19 1 4 3 -2 6 -13 5 -11 0 -14 -3 -6 -6z"/>
<path d="M1224 8231 c3 -4 1 -22 -3 -39 -7 -24 -6 -32 6 -36 29 -12 47 -5 75
27 l29 32 -38 12 c-46 14 -76 16 -69 4z"/>
<path d="M760 8045 c0 -31 26 -43 47 -22 13 13 14 19 3 31 -21 26 -50 20 -50
-9z"/>
<path d="M1010 7930 c0 -5 7 -10 15 -10 8 0 15 5 15 10 0 6 -7 10 -15 10 -8 0
-15 -4 -15 -10z"/>
<path d="M8597 7563 c-4 -3 -7 -11 -7 -17 0 -6 5 -5 12 2 6 6 9 14 7 17 -3 3
-9 2 -12 -2z"/>
<path d="M8520 7521 c-30 -11 -49 -26 -58 -44 -7 -15 -18 -27 -23 -27 -6 0
-22 -13 -35 -30 -14 -16 -38 -37 -53 -46 -26 -15 -36 -32 -60 -96 -7 -18 -18
-28 -30 -28 -11 0 -26 -10 -32 -22 -22 -44 -92 -128 -105 -128 -18 0 -36 -36
-30 -58 4 -13 0 -18 -13 -19 -13 -1 -23 8 -30 28 -16 45 -27 28 -35 -51 -3
-40 -13 -84 -21 -100 -8 -16 -15 -42 -15 -59 0 -23 -9 -36 -40 -58 -22 -15
-40 -31 -40 -35 0 -14 53 -9 69 6 9 8 28 18 44 21 37 10 36 -14 -3 -59 -35
-40 -29 -49 33 -44 l42 3 31 -60 c69 -135 245 -275 344 -275 12 0 29 -9 38
-20 20 -23 92 -55 92 -41 0 6 -12 22 -27 36 -28 25 -28 25 -5 25 13 0 55 -18
95 -39 53 -29 79 -38 100 -34 36 7 43 20 21 44 -16 18 -16 19 1 19 10 0 27 -8
38 -17 19 -17 19 -17 12 6 -7 22 -5 23 21 17 16 -3 39 -8 52 -10 13 -2 28 -8
35 -15 6 -6 15 -11 19 -11 15 0 8 20 -11 37 -24 20 -19 33 9 26 14 -4 20 0 20
11 0 10 9 16 24 16 29 0 64 56 46 74 -18 18 -11 26 23 26 29 1 31 2 14 15 -18
13 -18 14 0 24 24 12 56 76 79 155 23 80 14 158 -32 260 -40 92 -44 103 -75
206 -12 41 -28 82 -35 91 -8 8 -14 20 -14 26 0 12 -68 76 -98 92 -11 6 -47 17
-79 25 -59 15 -144 44 -152 52 -3 2 5 11 17 20 30 21 28 34 -5 34 -27 1 -27 1
-9 15 10 8 24 16 30 18 6 2 8 8 4 12 -3 4 -24 1 -45 -6 -49 -17 -50 -18 -34
-29 11 -6 8 -14 -15 -33 -16 -14 -32 -23 -36 -20 -13 7 -9 30 6 43 16 12 12
36 -7 43 -7 3 -32 -3 -57 -12z"/>
<path d="M4320 7301 c0 -5 12 -18 27 -29 16 -11 25 -24 21 -28 -4 -3 -33 -8
-65 -9 -95 -3 -166 -16 -154 -28 18 -18 13 -26 -21 -29 -17 -2 -33 -9 -36 -15
-6 -20 108 -17 136 3 32 22 116 33 170 22 58 -12 78 -28 35 -28 -18 0 -35 5
-38 11 -10 15 -77 7 -99 -13 -10 -9 -33 -20 -50 -24 -17 -3 -35 -10 -41 -14
-5 -4 -35 -15 -65 -25 -87 -27 -105 -38 -102 -62 2 -14 -13 -33 -50 -64 -29
-24 -58 -50 -64 -57 -5 -8 -30 -16 -55 -19 -40 -5 -99 -37 -87 -48 2 -3 18 1
36 7 17 7 34 9 38 5 11 -11 -15 -35 -51 -47 -36 -12 -105 -81 -105 -104 0 -8
-24 -51 -54 -95 -35 -53 -55 -94 -59 -122 -6 -44 8 -89 28 -89 7 0 20 -9 30
-20 13 -14 31 -20 62 -20 30 0 43 -4 43 -14 0 -8 12 -23 27 -34 23 -17 25 -22
14 -36 -12 -14 -9 -16 23 -16 20 0 36 -4 36 -10 0 -5 -4 -10 -10 -10 -5 0 -10
-4 -10 -10 0 -5 7 -10 15 -10 26 0 16 -28 -15 -42 -16 -7 -30 -16 -30 -20 0
-12 12 -10 29 5 39 34 115 47 83 15 -20 -20 -14 -28 23 -28 26 0 33 -3 29 -15
-5 -12 2 -15 29 -15 39 0 70 -26 43 -36 -17 -6 -23 -44 -7 -44 5 0 25 7 46 16
42 17 58 11 29 -11 -18 -14 -18 -14 4 -15 12 0 22 -4 22 -10 0 -5 13 -10 28
-10 15 0 32 -4 38 -10 6 -6 21 -6 41 -1 45 13 48 2 11 -36 -40 -41 -25 -43 22
-2 24 21 41 29 56 25 13 -4 26 -2 29 4 11 18 45 11 45 -9 0 -18 3 -19 33 -10
17 6 40 15 50 20 13 7 17 5 17 -7 0 -13 6 -15 29 -11 15 3 33 1 39 -5 9 -9 16
-8 29 4 10 8 33 18 52 22 19 3 43 14 53 23 18 16 21 16 48 -1 30 -17 30 -17
55 10 17 19 37 28 66 30 31 3 39 1 32 -9 -15 -18 -23 -57 -12 -57 5 0 -12 -19
-36 -41 -46 -42 -55 -59 -32 -59 19 0 97 76 97 95 0 9 11 30 24 46 23 27 25
28 28 8 3 -21 4 -20 31 6 15 16 30 25 33 22 4 -3 -8 -20 -25 -37 -17 -17 -31
-36 -31 -42 0 -18 65 41 86 77 15 27 35 30 41 6 5 -20 8 -19 50 19 29 28 50
39 62 35 11 -3 26 4 41 20 18 19 26 22 32 13 6 -9 7 -6 4 8 -6 21 13 45 47 57
9 4 17 14 17 23 0 10 -5 14 -15 10 -21 -8 -18 4 8 35 13 16 37 29 60 33 42 8
45 1 22 -44 -14 -27 -14 -30 0 -30 9 0 15 -9 15 -25 0 -34 20 -32 22 3 1 15 2
36 3 47 1 11 3 32 4 48 0 15 7 27 15 27 9 0 12 -8 8 -25 -5 -31 13 -33 30 -4
7 11 32 29 56 40 47 22 51 30 22 50 -18 13 -19 18 -8 51 12 40 0 68 -29 68
-17 0 -9 35 14 62 10 11 13 28 9 54 -8 46 -15 54 -27 31 -18 -32 -31 -19 -24
23 8 49 -11 55 -28 10 -6 -16 -14 -30 -17 -30 -7 0 -5 72 3 130 l7 45 -16 -35
c-9 -19 -21 -46 -27 -60 -11 -23 -12 -22 -15 23 -2 37 -7 47 -21 47 -9 0 -22
-5 -28 -11 -9 -9 -14 -5 -19 15 -3 14 -10 26 -14 26 -10 0 -20 -26 -20 -50 0
-9 -7 -24 -17 -31 -15 -13 -16 -11 -11 14 7 34 -7 43 -38 27 -22 -12 -27 -9
-92 58 -37 40 -73 72 -80 72 -15 0 -33 -35 -24 -46 4 -5 -3 -1 -15 10 -12 10
-26 15 -32 12 -13 -8 -71 70 -71 96 0 16 -3 17 -21 8 -16 -9 -25 -8 -40 6 -10
9 -19 22 -19 29 0 21 -36 55 -58 55 -12 0 -40 18 -64 40 -24 22 -51 40 -62 40
-10 0 -34 14 -54 31 -38 34 -120 75 -129 65 -3 -3 0 -12 7 -21 20 -24 -8 -19
-55 10 -30 19 -54 25 -97 25 -32 0 -58 -4 -58 -9z"/>
<path d="M3920 7025 c-19 -23 -8 -26 20 -5 19 15 21 20 9 20 -9 0 -22 -7 -29
-15z"/>
<path d="M3990 7010 c-9 -6 -10 -10 -3 -10 6 0 15 5 18 10 8 12 4 12 -15 0z"/>
<path d="M3859 6924 c-12 -14 -11 -16 5 -13 11 2 21 10 24 17 5 17 -13 15 -29
-4z"/>
<path d="M5310 6892 c0 -22 13 -42 26 -42 20 0 17 14 -6 35 -11 10 -20 13 -20
7z"/>
<path d="M5507 6263 c-9 -9 -9 -33 1 -33 4 0 13 9 20 20 10 16 10 20 -1 20 -8
0 -17 -3 -20 -7z"/>
<path d="M907 6129 c-17 -19 -16 -20 9 -29 21 -8 25 -15 20 -34 -4 -18 -1 -26
11 -29 15 -4 15 -6 -4 -12 -13 -4 -20 -11 -17 -16 3 -5 13 -5 24 1 10 5 30 10
43 10 47 0 61 56 19 75 -27 12 -28 23 -4 41 15 12 11 13 -33 13 -36 -1 -55 -6
-68 -20z"/>
<path d="M5297 6107 c-13 -12 -36 -31 -52 -41 -27 -18 -28 -20 -10 -26 14 -5
32 3 62 28 23 20 45 42 47 49 8 21 -23 15 -47 -10z"/>
<path d="M4135 5970 c-16 -7 -13 -9 18 -9 20 -1 37 4 37 9 0 12 -27 12 -55 0z"/>
<path d="M4315 5970 c-3 -5 -1 -10 4 -10 6 0 11 5 11 10 0 6 -2 10 -4 10 -3 0
-8 -4 -11 -10z"/>
<path d="M4450 5955 c-16 -19 0 -19 26 0 16 12 16 14 3 15 -9 0 -22 -7 -29
-15z"/>
<path d="M4767 5934 c-38 -26 -46 -45 -10 -26 18 10 60 52 52 52 -2 0 -22 -12
-42 -26z"/>
<path d="M0 2941 l0 -2941 1205 0 c858 0 1205 3 1205 11 0 6 -38 50 -83 97
-46 48 -95 105 -109 127 -37 57 -106 128 -155 158 -30 19 -49 42 -69 84 -15
32 -55 90 -89 128 -83 95 -109 136 -141 230 -14 44 -37 100 -49 125 -36 73
-102 239 -125 320 -23 78 -45 142 -112 325 -22 61 -50 146 -63 190 -65 222
-95 316 -111 340 -27 41 -36 111 -22 176 11 55 11 59 -15 98 -15 22 -27 45
-27 51 0 5 -4 10 -9 10 -18 0 -18 85 1 144 22 71 22 83 3 120 -8 15 -15 34
-15 41 0 8 -6 20 -13 27 -8 7 -16 44 -19 81 -3 37 -10 73 -16 80 -50 62 -83
167 -71 230 9 49 8 56 -22 123 -10 23 -21 59 -23 79 -3 20 -11 44 -19 54 -21
23 -27 60 -29 181 -2 88 -6 113 -26 153 -13 27 -28 74 -32 105 -11 72 -33 145
-55 178 -9 14 -19 46 -22 72 -3 26 -11 61 -18 77 -7 18 -11 64 -9 113 1 51 -4
107 -13 145 -13 50 -14 81 -6 166 5 59 5 123 1 144 -12 57 -13 344 -1 359 6 7
16 31 22 53 13 41 17 53 44 115 8 19 18 58 22 85 4 28 13 73 21 101 7 28 12
69 10 90 -3 21 -5 44 -5 51 -1 18 -71 84 -82 78 -5 -4 -9 -1 -9 6 0 7 -2 10
-5 7 -3 -3 -31 7 -62 23 -31 16 -60 26 -64 23 -5 -3 -9 0 -9 6 0 6 -4 9 -9 6
-4 -3 -24 3 -44 13 -20 10 -49 17 -64 15 -72 -9 -257 -4 -343 10 -52 9 -111
16 -130 16 -20 0 -44 6 -55 14 -11 7 -30 16 -42 20 l-23 7 0 -2940z"/>
<path d="M7896 5125 c-15 -8 -46 -15 -67 -15 -21 0 -41 -4 -44 -10 -3 -5 -20
-10 -36 -10 -22 0 -32 -6 -39 -25 -6 -15 -20 -27 -37 -31 -15 -3 -41 -10 -57
-15 -40 -13 -76 -11 -73 3 1 6 -9 17 -23 24 -21 11 -27 11 -40 -1 -12 -13 -12
-17 5 -29 18 -13 18 -14 -6 -14 -13 0 -52 -7 -87 -16 -74 -19 -106 -20 -134
-5 -30 16 -34 2 -7 -27 l24 -26 -24 -19 c-13 -10 -30 -19 -38 -19 -30 0 -168
-52 -183 -69 -8 -9 -42 -28 -75 -41 -71 -28 -87 -39 -79 -52 3 -5 -7 -14 -23
-20 -17 -6 -41 -27 -54 -47 -41 -61 -62 -81 -85 -81 -31 0 -52 -37 -46 -82 4
-35 2 -37 -29 -46 -32 -8 -32 -9 -11 -16 12 -4 22 -11 22 -16 0 -13 -52 -66
-77 -79 -13 -6 -23 -16 -23 -21 0 -6 10 -10 23 -10 29 0 51 -15 43 -28 -3 -6
-22 -16 -41 -22 -38 -13 -47 -39 -15 -47 26 -7 25 -18 -1 -36 -11 -8 -19 -23
-18 -34 5 -30 -10 -43 -49 -43 -39 -1 -81 -23 -63 -34 5 -4 32 -8 59 -10 27
-2 57 -8 66 -13 15 -8 9 -15 -36 -44 -57 -37 -63 -49 -29 -64 11 -5 21 -16 21
-24 0 -7 7 -19 15 -25 13 -9 14 -17 4 -44 -9 -26 -15 -31 -31 -26 -15 4 -19 2
-16 -7 3 -8 11 -15 19 -15 8 -1 20 -2 27 -3 14 -1 17 -31 2 -31 -5 0 -10 -4
-10 -10 0 -5 11 -10 25 -10 28 0 33 -20 10 -43 -8 -8 -11 -17 -8 -21 4 -3 -6
-20 -22 -36 -16 -16 -26 -32 -23 -36 8 -7 93 30 102 45 4 6 15 11 25 11 13 0
17 -8 17 -34 0 -28 -4 -36 -24 -41 -14 -3 -29 -18 -35 -35 -7 -19 -23 -33 -49
-43 -36 -15 -53 -47 -24 -47 27 0 82 23 98 41 18 21 34 24 43 9 3 -6 -7 -22
-24 -36 -16 -13 -32 -33 -35 -42 -3 -10 -20 -26 -37 -36 -23 -14 -29 -24 -27
-44 3 -23 8 -26 42 -26 46 -1 64 -26 19 -26 -48 0 -67 -10 -95 -51 -38 -53
-37 -79 1 -45 19 17 61 24 79 13 22 -14 13 -33 -23 -50 -20 -9 -39 -26 -43
-36 -4 -11 -31 -38 -59 -61 -29 -23 -53 -46 -53 -51 0 -16 35 4 91 51 69 60
169 92 169 55 0 -8 -6 -15 -13 -15 -8 0 -22 -9 -33 -21 -10 -11 -34 -28 -54
-36 -26 -12 -30 -17 -18 -20 15 -4 16 -8 7 -25 -10 -19 -48 -58 -81 -83 -61
-46 -88 -65 -96 -65 -5 0 -15 -6 -21 -14 -7 -8 -45 -26 -86 -41 -40 -15 -76
-33 -79 -41 -3 -8 -1 -14 4 -14 6 0 10 -9 10 -19 0 -11 4 -22 8 -25 11 -6 72
30 72 43 0 5 14 12 30 16 17 4 30 10 30 14 0 4 19 13 43 20 23 7 61 24 85 38
24 14 46 22 49 20 12 -12 -14 -31 -88 -64 -44 -20 -79 -40 -79 -44 0 -16 54
-10 90 10 19 10 46 22 60 26 l25 7 -25 -19 c-14 -11 -46 -29 -71 -41 -26 -11
-57 -30 -70 -43 -20 -20 -23 -20 -34 -6 -15 20 -136 12 -128 -9 2 -7 -5 -19
-16 -26 -29 -18 -26 -30 4 -22 41 10 28 -12 -16 -26 -43 -15 -48 -19 -54 -51
-4 -20 -3 -20 19 -5 14 8 37 27 53 42 25 23 103 68 103 59 0 -2 -27 -25 -60
-51 -33 -26 -60 -51 -60 -55 0 -12 37 -11 58 0 9 5 26 5 37 0 11 -4 15 -8 8
-8 -7 -1 -28 -15 -47 -31 -29 -26 -38 -29 -54 -19 -15 9 -26 8 -56 -6 -26 -13
-40 -15 -48 -7 -7 7 -17 7 -34 0 -44 -20 -39 2 9 44 35 29 45 43 38 52 -13 15
5 36 31 36 10 0 18 4 18 8 0 19 -14 19 -51 -1 -27 -14 -38 -26 -34 -37 3 -10
-7 -22 -33 -35 -20 -11 -40 -24 -44 -30 -4 -5 -10 -6 -14 -2 -4 4 1 16 11 27
30 34 -2 23 -62 -20 -31 -22 -66 -40 -79 -40 -19 0 -147 -103 -166 -135 -9
-14 1 -27 32 -43 95 -49 92 -46 70 -62 -25 -18 -26 -30 0 -30 11 0 29 -9 40
-20 11 -11 32 -20 46 -20 22 0 24 -3 19 -22 -4 -13 -15 -32 -25 -43 -33 -37
-41 -62 -24 -69 25 -9 28 -8 42 21 15 31 89 99 98 90 4 -3 -3 -18 -15 -33 -48
-61 -16 -65 55 -7 47 38 64 41 64 13 0 -11 3 -19 8 -19 25 4 32 -2 23 -20 -16
-29 12 -49 36 -26 28 28 26 2 -4 -49 -16 -26 -32 -55 -38 -65 -5 -9 -22 -30
-37 -46 -16 -17 -28 -33 -28 -37 0 -5 -11 -8 -25 -8 -14 0 -25 -4 -25 -10 0
-5 -9 -10 -20 -10 -26 0 -25 5 5 44 28 37 32 56 10 56 -19 0 -19 11 0 36 19
26 19 40 -1 23 -9 -7 -26 -18 -38 -24 -12 -7 -20 -19 -19 -31 3 -20 -16 -64
-26 -64 -4 0 -15 16 -25 35 -11 19 -25 35 -33 35 -16 0 -17 -22 -1 -38 9 -9 9
-15 0 -24 -9 -9 -15 -9 -24 0 -7 7 -24 12 -38 12 -24 0 -26 3 -22 30 3 23 0
30 -13 30 -11 0 -15 5 -12 14 4 11 0 13 -17 10 -17 -3 -28 3 -41 22 -18 28
-31 28 -91 3 -63 -25 -115 18 -63 53 13 8 20 21 17 33 -4 22 -9 18 -66 -55
l-20 -25 -24 23 c-17 15 -37 22 -66 22 -33 0 -45 5 -58 25 -9 14 -25 25 -36
25 -32 0 -58 19 -58 42 0 17 -3 19 -12 10 -7 -7 -28 -12 -47 -12 -28 0 -41 8
-70 42 -20 23 -38 51 -41 62 -10 36 -51 52 -108 40 -43 -9 -54 -8 -74 7 -20
15 -31 16 -64 8 -38 -10 -43 -9 -72 20 -17 17 -38 31 -46 31 -9 0 -16 6 -16
14 0 39 -102 -20 -131 -77 -15 -29 -25 -37 -48 -37 -20 0 -31 -7 -40 -26 -6
-14 -9 -29 -6 -34 3 -5 2 -10 -3 -12 -4 -1 -18 -19 -30 -39 -12 -20 -36 -42
-53 -50 -29 -11 -33 -11 -50 12 -10 13 -19 30 -19 37 0 18 -10 15 -36 -13 -22
-24 -46 -93 -59 -170 -7 -43 -45 -95 -70 -95 -8 0 -15 4 -15 9 0 14 -32 23
-44 11 -16 -16 -29 -12 -23 9 3 11 -4 26 -15 36 -19 15 -21 15 -34 -2 -8 -10
-19 -27 -26 -38 -6 -11 -19 -26 -29 -33 -10 -7 -21 -28 -25 -47 -3 -19 -9 -35
-13 -35 -11 0 -11 -39 0 -45 5 -4 9 -28 9 -54 0 -68 17 -95 60 -99 36 -4 58
-15 97 -49 17 -15 21 -28 18 -51 -2 -20 1 -32 8 -32 9 0 9 -2 0 -8 -9 -6 -7
-13 9 -26 17 -15 25 -16 40 -7 20 13 57 14 75 3 6 -4 15 -21 19 -37 4 -17 15
-38 26 -48 10 -10 16 -22 13 -27 -3 -5 0 -20 6 -34 10 -20 8 -33 -8 -68 -30
-64 -34 -92 -19 -114 14 -18 15 -18 43 9 37 35 48 34 63 -3 7 -17 20 -30 30
-30 22 0 50 31 51 56 0 14 2 15 6 4 3 -8 11 -18 17 -23 8 -5 6 -10 -4 -18 -11
-8 -12 -12 -3 -15 16 -7 -6 -44 -25 -44 -18 0 -42 -25 -42 -44 0 -9 -9 -21
-20 -28 -22 -14 -27 -38 -7 -38 8 0 7 -4 -3 -10 -12 -8 -10 -10 8 -10 13 0 21
4 18 9 -7 11 37 41 59 41 9 0 18 7 21 15 4 8 10 12 15 9 11 -6 0 -56 -14 -65
-5 -4 -7 -16 -4 -28 3 -12 1 -24 -4 -27 -5 -3 -9 -14 -9 -25 0 -10 -4 -19 -10
-19 -5 0 -9 -3 -8 -7 2 -5 -12 -27 -31 -50 -26 -33 -41 -43 -63 -43 -17 0 -27
4 -23 10 3 6 1 10 -5 10 -14 0 -34 21 -37 38 -2 6 2 12 8 12 5 0 8 4 4 9 -3 5
3 11 12 14 10 2 -6 8 -35 12 -29 4 -55 11 -57 15 -3 5 -15 6 -28 4 -12 -2 -16
-2 -10 2 10 4 10 10 -2 27 -11 15 -12 24 -3 34 8 10 7 13 -3 13 -10 0 -10 3
-1 12 18 18 15 28 -8 28 -11 0 -20 5 -20 10 0 18 -27 10 -53 -16 -17 -17 -33
-24 -43 -20 -9 3 -23 1 -30 -5 -8 -6 -23 -9 -34 -6 -15 4 -20 0 -21 -16 -1
-21 -1 -21 -7 -2 -4 11 -13 20 -19 19 -7 -1 -20 -2 -28 -3 -8 0 -15 -8 -15
-16 0 -23 -36 -18 -53 7 -14 20 -16 20 -16 5 -1 -13 -6 -16 -26 -11 -27 7 -36
-12 -10 -22 9 -4 15 -19 15 -39 0 -27 -8 -41 -40 -68 -22 -19 -40 -43 -40 -53
0 -17 -80 -104 -95 -104 -3 0 -19 -15 -35 -33 -27 -29 -29 -30 -30 -10 0 18
-5 21 -27 19 -28 -3 -47 -36 -21 -36 7 -1 -6 -10 -29 -21 -24 -11 -43 -24 -43
-29 0 -5 -10 -10 -22 -12 -12 -2 -23 -9 -26 -17 -3 -8 0 -11 7 -7 7 5 9 1 5
-8 -3 -9 -1 -16 5 -16 5 0 22 -21 37 -46 23 -39 25 -49 15 -71 -10 -21 -9 -27
6 -39 10 -7 26 -14 36 -14 9 0 17 -7 17 -16 0 -9 11 -25 24 -35 20 -16 26 -30
28 -72 2 -35 7 -51 16 -49 7 1 12 -8 12 -20 0 -15 10 -27 27 -35 35 -17 4153
-19 4153 -3 0 6 -4 10 -10 10 -5 0 -10 9 -10 20 0 11 -5 20 -11 20 -17 0 -35
23 -50 65 -7 22 -16 45 -20 50 -4 6 -10 35 -14 65 -9 70 -11 79 -24 126 -14
49 -15 205 -1 184 13 -21 17 -12 24 60 4 36 8 82 11 104 2 21 13 49 25 61 15
16 20 34 19 71 0 27 6 75 15 107 9 32 16 60 16 62 0 3 5 5 11 5 16 0 44 31 44
49 0 11 8 15 28 13 21 -2 27 1 25 13 -2 8 8 21 22 28 20 10 25 21 25 48 0 28
4 35 19 35 10 -1 22 6 26 14 28 55 35 78 35 121 0 27 5 49 10 49 6 0 3 5 -5
10 -12 7 -12 10 -1 10 7 0 11 6 7 15 -4 11 2 15 24 15 19 0 30 5 30 14 0 19
24 27 90 32 77 5 97 11 119 35 l19 20 14 -20 c8 -12 18 -18 21 -14 10 10 8 68
-3 99 -17 44 5 50 25 8 15 -32 19 -35 27 -20 6 10 7 31 4 47 -6 32 -4 34 25
19 15 -9 21 -7 25 5 3 8 15 15 25 15 20 0 26 24 9 35 -5 3 -10 1 -10 -6 0 -7
-7 -4 -15 7 -8 10 -15 33 -15 51 0 22 -7 36 -20 43 -11 6 -20 17 -20 25 0 7
-5 17 -11 21 -7 4 -9 -10 -4 -49 9 -68 1 -93 -30 -99 -28 -6 -47 17 -68 80 -9
27 -18 37 -34 37 -29 0 -38 11 -24 29 9 10 9 20 0 40 -7 14 -9 29 -4 34 4 4
10 2 12 -5 2 -6 15 -24 29 -40 l24 -28 6 23 c6 20 8 21 18 6 11 -14 14 -12 29
17 l16 34 7 -33 c4 -21 10 -29 14 -21 5 6 15 9 24 6 12 -5 16 0 16 24 0 29 1
30 22 15 39 -28 49 -21 33 24 -17 48 -10 50 28 10 35 -37 60 -31 45 11 -16 46
-6 51 36 17 34 -28 38 -29 32 -10 -5 13 -3 22 3 22 6 0 11 7 11 16 0 11 6 15
19 11 14 -3 18 -1 14 9 -3 9 1 14 12 14 9 0 13 5 10 10 -4 6 -11 7 -17 4 -6
-4 -8 -2 -4 4 3 6 -1 17 -9 25 -25 26 -18 36 19 27 29 -6 38 -4 55 14 12 13
18 26 14 29 -3 4 6 7 20 7 17 0 27 5 27 15 0 8 3 14 8 13 4 -1 21 2 38 6 25 6
31 11 27 27 -4 14 0 19 15 19 12 0 27 8 34 19 7 10 22 21 33 25 11 3 29 19 40
36 13 19 38 36 68 47 31 11 46 22 42 30 -7 19 16 53 36 53 21 0 43 26 36 43
-4 10 3 12 27 9 17 -2 26 0 20 5 -22 17 -20 38 8 61 15 13 28 30 28 38 0 8 7
14 15 14 19 0 19 9 -2 32 -18 20 -7 23 33 8 15 -6 29 -8 32 -6 7 8 -19 37 -53
58 l-30 20 48 -7 c55 -7 62 5 17 32 -30 17 -39 33 -20 33 16 0 11 19 -11 41
-24 24 -17 39 11 21 11 -7 35 -12 55 -12 26 0 33 3 29 15 -4 8 -12 15 -20 15
-8 0 -14 7 -14 15 0 8 -5 15 -10 15 -6 0 -15 11 -21 24 -6 13 -23 29 -38 36
-56 25 -73 40 -61 55 6 8 9 23 5 34 -3 10 -1 22 5 26 5 3 10 0 10 -8 0 -8 7
-17 15 -21 8 -3 15 -12 15 -21 0 -8 9 -15 20 -15 11 0 20 6 20 13 0 8 -9 22
-20 32 -25 23 -25 35 -1 35 30 0 32 26 5 55 -23 25 -24 29 -10 44 9 10 16 23
16 29 0 7 11 12 24 12 37 0 39 15 6 43 -16 14 -32 37 -36 53 -7 27 -6 27 30
21 33 -5 37 -4 31 11 -16 36 -17 63 -5 92 7 17 16 30 21 30 4 0 22 44 39 99
31 97 31 100 26 252 -3 85 -7 228 -9 319 -3 149 -6 172 -30 233 -68 179 -283
435 -426 506 -118 60 -244 111 -273 111 -16 0 -36 7 -45 15 -11 12 -34 16 -87
15 -49 -2 -81 3 -103 15 -22 11 -38 13 -50 7 -10 -5 -54 -9 -99 -10 -78 0 -82
1 -117 33 -29 27 -46 33 -94 38 -32 3 -67 8 -78 11 -11 4 -33 0 -49 -9z
m-1170 -1660 c-11 -8 -22 -12 -25 -9 -6 6 19 24 34 24 6 -1 1 -7 -9 -15z m-6
-109 c0 -12 -59 -45 -65 -37 -3 6 7 17 22 25 29 16 43 19 43 12z m40 -76 c0
-5 -4 -10 -10 -10 -5 0 -10 5 -10 10 0 6 5 10 10 10 6 0 10 -4 10 -10z m-55
-30 c-3 -5 -10 -10 -16 -10 -5 0 -9 5 -9 10 0 6 7 10 16 10 8 0 12 -4 9 -10z
m-70 -250 c-10 -11 -25 -20 -34 -20 -12 1 -10 5 8 20 30 26 49 26 26 0z m2517
-54 c18 -14 27 -26 20 -26 -20 0 -72 55 -71 76 0 17 1 17 9 -2 4 -12 23 -33
42 -48z m-2786 -315 c-6 -9 -46 -22 -46 -15 0 3 10 9 23 14 29 11 29 11 23 1z
m257 -624 c-10 -20 -22 -37 -29 -37 -6 0 -14 -9 -17 -20 -3 -11 -10 -20 -16
-20 -16 0 -14 15 4 30 8 7 15 21 15 31 0 11 7 19 15 19 8 0 19 9 25 21 19 34
21 16 3 -24z m-258 0 c-7 -25 -55 -87 -68 -87 -18 0 -3 35 30 75 40 48 47 51
38 12z m114 -61 c-25 -37 -39 -38 -38 -3 0 12 3 16 6 10 6 -16 23 -17 23 -3 0
13 23 40 29 34 2 -2 -7 -19 -20 -38z m-852 13 c-17 -10 -50 -1 -42 11 2 4 16
5 31 2 21 -4 23 -7 11 -13z m528 -30 c-24 -51 -67 -109 -76 -103 -11 7 -12 44
-1 44 5 0 18 18 31 40 20 35 50 64 59 55 2 -1 -4 -18 -13 -36z m-1715 18 c0
-14 -35 -47 -50 -47 -14 0 -12 34 2 48 16 16 48 15 48 -1z m2238 -7 c-13 -21
-38 -27 -38 -10 0 9 28 29 43 30 4 0 2 -9 -5 -20z m-133 -29 c-9 -16 -25 -3
-18 15 4 10 9 12 15 6 6 -6 7 -15 3 -21z m448 -25 c-4 -24 -10 -35 -18 -32 -7
2 -15 -4 -18 -15 -7 -26 9 -24 35 6 25 29 38 32 38 9 0 -23 32 -13 46 14 6 13
21 30 33 38 19 13 21 13 21 0 0 -8 -8 -31 -17 -50 -14 -29 -14 -40 -4 -62 12
-28 6 -48 -8 -25 -7 11 -11 9 -21 -8 -6 -13 -9 -29 -6 -36 2 -7 -1 -21 -8 -31
-12 -16 -14 -15 -20 12 -8 34 4 73 27 93 9 7 13 19 10 28 -5 12 -9 10 -20 -11
-8 -15 -18 -24 -23 -21 -5 3 -25 -15 -45 -40 -21 -25 -41 -45 -46 -45 -5 0 -9
16 -9 35 0 45 -27 48 -43 5 -14 -38 -29 -39 -23 -2 2 15 5 35 5 45 1 9 7 17
15 17 16 0 26 21 26 57 0 22 2 24 16 12 16 -13 19 -12 45 34 15 26 19 17 12
-27z m-363 25 c0 -5 -13 -21 -30 -34 -16 -14 -30 -30 -30 -36 0 -5 -4 -13 -10
-16 -23 -14 -8 35 19 64 28 30 51 40 51 22z m554 -48 c-8 -58 -9 -59 -29 -39
-14 14 -14 16 -1 16 9 0 18 13 22 35 9 52 16 42 8 -12z m-294 31 c0 -12 -34
-64 -42 -64 -15 0 -8 33 10 51 17 18 32 24 32 13z m-2556 -17 c16 -12 16 -14
2 -26 -9 -8 -16 -10 -16 -6 0 4 -7 2 -15 -5 -11 -9 -19 -10 -27 -2 -13 13 -2
32 18 32 8 0 12 5 9 10 -9 14 8 12 29 -3z m1936 -13 c0 -10 -73 -104 -80 -104
-27 0 -12 37 33 88 19 21 47 30 47 16z m157 -26 c-3 -7 -5 -2 -5 12 0 14 2 19
5 13 2 -7 2 -19 0 -25z m1619 -26 c11 -38 13 -72 2 -66 -10 6 -33 50 -42 81
-6 18 -3 20 13 16 11 -3 23 -17 27 -31z m-1650 14 c18 -18 18 -33 0 -43 -7 -4
-16 -15 -19 -23 -3 -8 -5 6 -5 33 1 51 2 54 24 33z m-236 -5 c0 -5 -9 -19 -20
-32 -15 -19 -19 -21 -20 -7 0 9 7 24 16 32 18 18 24 20 24 7z m531 -29 c-6
-11 -17 -22 -25 -25 -8 -3 -30 -30 -49 -59 -35 -56 -64 -85 -73 -75 -9 9 5 28
80 111 66 73 90 90 67 48z m1009 -2 c0 -5 -4 -10 -10 -10 -5 0 -10 5 -10 10 0
6 5 10 10 10 6 0 10 -4 10 -10z m-1360 -11 c0 -20 -21 -49 -35 -49 -19 0 -19
10 1 38 16 23 34 29 34 11z m1160 -8 c0 -11 -4 -23 -10 -26 -6 -4 -10 5 -10
19 0 14 5 26 10 26 6 0 10 -9 10 -19z m-1045 -31 c9 -28 -2 -40 -34 -40 -15 0
-32 -5 -39 -12 -9 -9 -15 -9 -23 -1 -15 15 -5 42 18 49 10 3 25 9 33 14 24 14
38 11 45 -10z m815 5 c0 -8 -7 -15 -15 -15 -16 0 -20 12 -8 23 11 12 23 8 23
-8z m130 -4 c0 -11 -4 -23 -10 -26 -6 -4 -10 5 -10 19 0 14 5 26 10 26 6 0 10
-9 10 -19z m-877 -48 c-9 -23 -20 -14 -15 13 3 17 7 22 12 13 5 -7 6 -18 3
-26z m938 -26 c-13 -13 -15 21 -3 50 6 15 8 13 10 -11 2 -16 -1 -33 -7 -39z
m772 22 c4 -16 3 -18 -9 -8 -16 13 -19 29 -5 29 5 0 11 -9 14 -21z m-1117
-272 c24 8 34 6 58 -11 38 -27 66 -54 66 -63 0 -5 7 -21 16 -38 14 -27 13 -32
-3 -65 -10 -19 -21 -38 -26 -41 -4 -3 -10 -16 -13 -30 -3 -13 -7 -31 -9 -39
-2 -8 -4 -18 -4 -22 -1 -5 -10 -8 -21 -8 -11 0 -20 -5 -20 -10 0 -6 -13 -18
-30 -29 -16 -10 -28 -20 -25 -23 3 -3 -9 -8 -26 -12 -18 -3 -39 -15 -47 -27
-8 -11 -20 -18 -28 -15 -9 4 -18 -4 -24 -19 -7 -19 -19 -26 -50 -31 -22 -4
-40 -10 -40 -14 0 -5 -9 -6 -20 -3 -14 4 -22 -1 -28 -16 -4 -12 -23 -29 -42
-39 -29 -14 -37 -26 -49 -67 -7 -27 -13 -60 -13 -72 0 -13 -4 -23 -9 -23 -5 0
-9 20 -9 45 0 37 -6 51 -30 77 -16 17 -30 37 -30 44 0 8 -5 14 -11 14 -8 0
-10 14 -6 41 8 61 1 74 -32 53 -32 -21 -51 -46 -44 -57 3 -4 -7 -19 -22 -33
-24 -22 -26 -30 -23 -90 1 -36 -2 -68 -8 -72 -11 -8 -32 -75 -34 -112 0 -14
-2 -64 -3 -112 -1 -47 -5 -90 -9 -94 -5 -4 -8 -18 -8 -30 0 -13 -11 -44 -25
-71 -14 -26 -23 -53 -21 -60 4 -8 -3 -13 -17 -12 -12 0 -16 3 -9 6 6 2 12 9
12 14 0 14 -24 6 -31 -11 -4 -10 -9 -4 -14 18 -6 31 -8 32 -21 15 -11 -15 -13
-16 -14 -2 0 16 -30 23 -30 7 0 -18 -44 1 -77 32 l-34 34 1 180 c1 100 -1 201
-5 226 -12 88 -12 100 7 119 18 21 25 51 10 51 -5 0 -15 11 -22 25 -13 24 -14
24 -32 8 -17 -15 -18 -26 -13 -75 9 -72 -1 -130 -26 -159 -15 -17 -22 -20 -31
-11 -7 7 -20 12 -30 12 -11 0 -18 7 -18 19 0 21 -31 81 -42 81 -6 0 -58 48
-58 53 0 2 16 4 37 5 20 2 40 5 45 8 4 3 8 30 8 61 0 65 25 154 52 183 10 10
18 25 18 32 1 8 6 5 15 -6 13 -17 15 -18 15 -3 0 9 5 17 10 17 6 0 10 5 10 11
0 16 31 38 52 39 9 0 19 6 21 13 19 46 45 -173 28 -243 -5 -22 -3 -48 4 -70
10 -30 16 -35 48 -38 21 -2 37 1 37 7 0 6 -6 11 -12 11 -9 0 -10 3 -2 8 6 4
23 26 38 50 14 23 32 42 40 42 17 0 26 23 25 63 -1 18 -3 24 -6 15 -6 -25 -20
-22 -29 5 -12 38 -9 190 4 195 6 2 14 20 18 40 4 20 13 50 22 66 l14 30 14
-39 c7 -21 12 -43 11 -49 -2 -10 2 -11 37 -7 8 0 18 13 24 29 13 37 54 82 75
82 10 0 23 -11 29 -25 6 -14 19 -25 29 -25 10 0 29 11 43 25 24 24 65 32 98
20 11 -5 16 -66 8 -100 -7 -24 -5 -41 5 -47 6 -5 3 -8 -7 -8 -37 0 -16 -15 22
-16 37 -1 39 0 34 22 -5 18 -2 24 10 24 24 0 19 18 -6 22 -28 4 -32 19 -13 43
12 14 18 16 21 8 9 -22 34 -14 63 18 24 26 32 29 49 20 17 -9 26 -7 48 13 28
23 28 23 44 3 14 -17 21 -18 46 -10z m611 -23 c-3 -3 -12 -4 -19 -1 -8 3 -5 6
6 6 11 1 17 -2 13 -5z m-54 -11 c-7 -2 -19 -2 -25 0 -7 3 -2 5 12 5 14 0 19
-2 13 -5z m-3003 -361 c0 -13 -39 -46 -46 -40 -8 9 19 48 33 48 7 0 13 -4 13
-8z m-780 -162 c0 -5 -4 -10 -10 -10 -5 0 -10 5 -10 10 0 6 5 10 10 10 6 0 10
-4 10 -10z m3690 -380 c0 -47 -4 -80 -10 -80 -6 0 -10 33 -10 80 0 47 4 80 10
80 6 0 10 -33 10 -80z m-60 -10 c0 -27 -2 -50 -4 -50 -2 0 -11 11 -20 25 -12
18 -13 30 -6 50 15 41 30 29 30 -25z"/>
<path d="M6660 1349 c0 -5 5 -7 10 -4 6 3 10 8 10 11 0 2 -4 4 -10 4 -5 0 -10
-5 -10 -11z"/>
<path d="M6397 888 c-3 -24 -11 -69 -18 -100 -12 -54 -12 -59 6 -72 18 -13 22
-13 37 1 15 13 17 28 12 92 -6 93 -12 121 -23 121 -5 0 -11 -19 -14 -42z"/>
<path d="M7575 5080 c3 -5 15 -10 25 -10 10 0 22 5 25 10 4 6 -7 10 -25 10
-18 0 -29 -4 -25 -10z"/>
<path d="M10779 4298 c-1 -13 -3 -33 -4 -44 -1 -12 4 -34 11 -50 12 -27 13
-24 12 44 -1 39 -5 72 -10 72 -4 0 -9 -10 -9 -22z"/>
<path d="M10768 4098 c-22 -27 -22 -32 -3 -48 8 -7 15 -20 15 -29 0 -14 2 -14
10 -1 11 18 13 100 3 100 -5 0 -16 -10 -25 -22z"/>
<path d="M10752 3748 c-16 -16 -15 -45 1 -51 8 -3 5 -11 -10 -24 -13 -11 -23
-25 -23 -32 0 -6 -6 -11 -14 -11 -18 0 -56 -78 -56 -114 0 -36 -40 -72 -95
-87 -22 -6 -40 -10 -40 -9 0 10 -87 -44 -92 -57 -4 -9 -19 -28 -34 -42 l-28
-27 16 -48 16 -48 -47 -40 c-25 -22 -46 -45 -45 -51 2 -19 -13 -57 -22 -57
-13 0 -35 -49 -53 -121 -9 -36 -25 -84 -36 -106 -11 -22 -24 -60 -29 -84 -21
-93 -67 -189 -83 -173 -6 5 -68 -144 -68 -163 0 -6 -4 -13 -9 -15 -7 -2 -18
-70 -21 -125 0 -6 -12 -26 -26 -43 -15 -17 -28 -41 -29 -53 -2 -12 -10 -39
-18 -60 -9 -21 -24 -67 -33 -104 -19 -77 -56 -161 -95 -219 -46 -68 -74 -126
-96 -199 -38 -129 -52 -170 -81 -252 -17 -45 -30 -101 -30 -125 1 -52 -29
-150 -82 -276 -22 -51 -67 -172 -99 -270 -58 -172 -95 -258 -126 -293 -9 -9
-24 -32 -33 -50 -31 -60 -46 -81 -105 -157 -52 -66 -87 -129 -87 -153 0 -5
382 -9 880 -9 l880 0 0 1880 c0 1804 -1 1880 -18 1880 -10 0 -23 -5 -30 -12z"/>
<path d="M6418 3683 c7 -3 16 -2 19 1 4 3 -2 6 -13 5 -11 0 -14 -3 -6 -6z"/>
<path d="M4264 3495 c-10 -8 -27 -15 -36 -15 -11 0 -18 -8 -18 -20 0 -10 -8
-24 -17 -29 -10 -6 -14 -11 -9 -11 5 0 3 -7 -4 -15 -10 -13 -9 -15 8 -15 12 0
31 4 44 9 13 4 50 17 83 26 66 20 91 37 80 55 -5 8 -13 7 -29 -3 -20 -14 -24
-13 -43 9 -25 28 -32 29 -59 9z"/>
<path d="M4378 3406 c-20 -6 -40 -14 -44 -18 -4 -5 -18 -8 -31 -8 -13 0 -47
-12 -76 -27 l-52 -26 29 -12 c18 -7 24 -14 16 -17 -10 -3 -13 -20 -12 -54 2
-44 -1 -53 -33 -87 -19 -21 -35 -42 -35 -48 0 -15 26 -10 53 11 14 11 31 20
38 20 6 0 35 11 63 24 88 41 227 97 276 112 26 8 55 23 66 35 l19 21 -40 -7
c-22 -4 -47 -9 -56 -11 -11 -3 -19 4 -23 21 -6 25 -29 34 -41 15 -11 -18 -35
-11 -35 10 0 25 -7 25 -47 0 -18 -11 -39 -17 -48 -14 -23 9 -30 -24 -10 -46
18 -19 17 -20 -9 -20 -26 0 -27 3 -24 38 3 41 12 52 45 52 12 0 34 11 49 25
29 27 20 30 -38 11z m-48 -200 c0 -3 -4 -8 -10 -11 -5 -3 -10 -1 -10 4 0 6 5
11 10 11 6 0 10 -2 10 -4z"/>
<path d="M6297 3382 l-38 -17 78 2 c76 2 97 12 51 25 -35 9 -50 8 -91 -10z"/>
<path d="M4603 3265 c-69 -19 -258 -109 -299 -143 -18 -15 -43 -35 -56 -44
l-23 -16 25 -11 c23 -9 24 -10 3 -10 -12 -1 -23 3 -25 8 -4 12 -79 -1 -79 -14
0 -5 9 -11 21 -13 12 -2 20 -11 20 -22 0 -11 11 -22 30 -29 17 -5 30 -15 30
-20 0 -19 56 -12 75 9 24 27 44 25 55 -5 11 -28 35 -32 61 -9 14 13 24 13 59
4 22 -6 50 -22 62 -35 21 -24 134 -67 167 -64 37 3 44 0 31 -16 -11 -13 -7
-15 26 -15 22 -1 68 -1 104 -2 37 -1 77 4 93 12 26 13 37 30 18 30 -4 0 -8 17
-7 38 1 34 -1 37 -23 34 -20 -3 -23 0 -18 17 3 11 -1 25 -9 32 -8 6 -14 19
-14 29 0 25 -10 31 -32 19 -25 -14 -32 -6 -19 20 10 17 9 20 -4 15 -13 -5 -15
-1 -9 21 6 24 4 27 -10 22 -10 -4 -19 -1 -23 8 -3 10 -12 13 -24 10 -14 -5
-19 -1 -19 11 0 10 -7 25 -16 35 -11 13 -13 22 -6 36 7 13 6 24 -4 38 -12 17
-18 18 -47 7 -45 -16 -49 -15 -37 8 13 24 0 25 -77 5z m85 -355 c-13 -20 -38
-28 -38 -12 0 12 23 32 37 32 11 0 11 -4 1 -20z m287 -60 c-3 -5 -11 -10 -16
-10 -6 0 -7 5 -4 10 3 6 11 10 16 10 6 0 7 -4 4 -10z"/>
<path d="M6302 3268 c6 -18 22 -20 43 -3 19 14 18 14 -13 15 -22 0 -32 -4 -30
-12z"/>
<path d="M6030 2995 c-18 -22 -4 -30 27 -16 22 10 24 14 12 22 -19 12 -25 11
-39 -6z"/>
<path d="M5673 2973 c-23 -9 -14 -25 10 -18 31 10 45 25 22 24 -11 0 -26 -3
-32 -6z"/>
<path d="M3627 2899 c-24 -20 -37 -39 -37 -55 0 -20 5 -24 33 -24 17 0 48 -3
68 -6 33 -6 37 -3 52 27 19 41 10 63 -34 78 -42 15 -39 15 -82 -20z"/>
<path d="M5955 2910 c-3 -5 1 -10 9 -10 8 0 18 5 21 10 3 6 -1 10 -9 10 -8 0
-18 -4 -21 -10z"/>
<path d="M6334 2879 c-19 -22 -19 -22 3 -10 24 12 39 31 25 31 -5 0 -17 -10
-28 -21z"/>
<path d="M5018 2816 c-10 -7 -18 -18 -18 -23 0 -6 -10 -15 -22 -21 -13 -6 -17
-11 -10 -11 23 -2 92 39 92 54 0 18 -19 19 -42 1z"/>
<path d="M5808 2814 c-16 -8 -28 -19 -28 -25 0 -11 37 6 58 28 17 17 4 16 -30
-3z"/>
<path d="M3706 2778 c-62 -41 -59 -62 9 -66 36 -1 56 3 74 16 23 18 23 20 7
45 -25 38 -38 38 -90 5z"/>
<path d="M6090 2800 c-8 -5 -10 -10 -5 -10 6 0 17 5 25 10 8 5 11 10 5 10 -5
0 -17 -5 -25 -10z"/>
<path d="M5875 2740 c-3 -6 1 -7 9 -4 18 7 21 14 7 14 -6 0 -13 -4 -16 -10z"/>
<path d="M5928 2732 c-28 -17 -38 -42 -17 -42 17 0 68 32 73 47 7 18 -23 15
-56 -5z"/>
<path d="M6111 2681 c-8 -5 -9 -11 -3 -15 13 -8 42 3 42 15 0 11 -21 11 -39 0z"/>
<path d="M5585 2570 c-23 -26 -4 -26 26 0 18 15 20 19 8 20 -9 0 -24 -9 -34
-20z"/>
<path d="M5453 2563 c-3 -10 -9 -22 -12 -28 -3 -5 6 -3 19 6 13 9 26 21 28 27
6 19 -28 14 -35 -5z"/>
<path d="M5660 2525 c-13 -14 -20 -28 -17 -32 4 -3 2 -12 -4 -20 -9 -10 -15
-10 -25 -2 -10 8 -14 8 -14 0 0 -6 -7 -11 -15 -11 -22 0 -19 -47 4 -60 14 -7
29 -6 53 5 50 20 55 28 70 120 5 29 -24 29 -52 0z"/>
<path d="M5805 2509 c-11 -17 1 -21 15 -4 8 9 8 15 2 15 -6 0 -14 -5 -17 -11z"/>
<path d="M5395 2500 c-3 -5 -2 -10 4 -10 5 0 13 5 16 10 3 6 2 10 -4 10 -5 0
-13 -4 -16 -10z"/>
<path d="M4257 2228 c-7 -25 0 -41 14 -33 12 8 12 42 0 49 -5 3 -11 -4 -14
-16z"/>
<path d="M6013 2042 c-3 -9 -8 -20 -10 -24 -2 -4 6 -4 18 1 28 10 35 27 14 35
-10 3 -18 -1 -22 -12z"/>
<path d="M5871 1998 c-29 -30 -41 -58 -23 -58 9 1 41 28 65 57 15 17 16 21 3
26 -9 4 -27 -7 -45 -25z"/>
<path d="M5796 1984 c-9 -22 -8 -24 9 -18 8 4 15 12 15 20 0 19 -16 18 -24 -2z"/>
<path d="M3320 391 c0 -17 18 -21 24 -6 3 9 0 15 -9 15 -8 0 -15 -4 -15 -9z"/>
<path d="M3347 276 c-4 -10 -5 -21 -2 -24 9 -9 17 6 13 25 -3 17 -4 17 -11 -1z"/>
</g>
</svg>
